HIERARCHY
ROOT Hips
{
	OFFSET -0.179506 -22.333345 2.821913
	CHANNELS 6 Xposition Yposition Zposition Zrotation Yrotation Xrotation 
	JOINT LeftUpLeg
	{
		OFFSET 6.951974 -9.140623 -0.681533
		CHANNELS 3 Zrotation Yrotation Xrotation
		JOINT LeftLeg
		{
			OFFSET 3.427654 -37.519855 -0.449580
			CHANNELS 3 Zrotation Yrotation Xrotation
			JOINT LeftFoot
			{
				OFFSET -1.359570 -39.796059 -4.369333
				CHANNELS 3 Zrotation Yrotation Xrotation
				JOINT LeftToe
				{
					OFFSET 2.635814 -5.579078 11.928840
					CHANNELS 3 Zrotation Yrotation Xrotation
					End Site
					{
						OFFSET 0.000000 0.000000 0.000000
					}
				}
			}
		}
	}
	JOINT RightUpLeg
	{
		OFFSET -6.767048 -9.052170 -0.431982
		CHANNELS 3 Zrotation Yrotation Xrotation
		JOINT RightLeg
		{
			OFFSET -3.829005 -38.256897 -0.885003
			CHANNELS 3 Zrotation Yrotation Xrotation
			JOINT RightFoot
			{
				OFFSET 1.577377 -39.841461 -4.231180
				CHANNELS 3 Zrotation Yrotation Xrotation
				JOINT RightToe
				{
					OFFSET -2.537174 -4.814398 12.334795
					CHANNELS 3 Zrotation Yrotation Xrotation
					End Site
					{
						OFFSET 0.000000 0.000000 0.000000
					}
				}
			}
		}
	}
	JOINT Spine
	{
		OFFSET -0.253288 10.896323 -2.669631
		CHANNELS 3 Zrotation Yrotation Xrotation
		JOINT Spine1
		{
			OFFSET 0.548704 13.518043 0.109247
			CHANNELS 3 Zrotation Yrotation Xrotation
			JOINT Spine2
			{
				OFFSET 0.145701 5.292222 2.542457
				CHANNELS 3 Zrotation Yrotation Xrotation
				JOINT Neck
				{
					OFFSET -0.277840 21.387037 -4.285703
					CHANNELS 3 Zrotation Yrotation Xrotation
					JOINT Head
					{
						OFFSET 0.515184 6.496960 5.134897
						CHANNELS 3 Zrotation Yrotation Xrotation
						End Site
						{
							OFFSET 0.000000 0.000000 0.000000
						}
					}
				}
				JOINT LeftShoulder
				{
					OFFSET 7.884473 12.174932 -3.408961
					CHANNELS 3 Zrotation Yrotation Xrotation
					JOINT LeftArm
					{
						OFFSET 9.097692 3.046888 -0.886815
						CHANNELS 3 Zrotation Yrotation Xrotation
						JOINT LeftForeArm
						{
							OFFSET 25.961220 -1.277207 -2.745643
							CHANNELS 3 Zrotation Yrotation Xrotation
							JOINT LeftHand
							{
								OFFSET 24.923361 0.898606 -0.117091
								CHANNELS 3 Zrotation Yrotation Xrotation
								End Site
								{
									OFFSET 0.000000 0.000000 0.000000
								}
							}
						}
					}
				}
				JOINT RightShoulder
				{
					OFFSET -8.175920 11.883285 -3.861528
					CHANNELS 3 Zrotation Yrotation Xrotation
					JOINT RightArm
					{
						OFFSET -9.601238 3.255117 -0.914307
						CHANNELS 3 Zrotation Yrotation Xrotation
						JOINT RightForeArm
						{
							OFFSET -25.374195 -1.332924 -2.140099
							CHANNELS 3 Zrotation Yrotation Xrotation
							JOINT RightHand
							{
								OFFSET -25.529810 0.777228 -0.555919
								CHANNELS 3 Zrotation Yrotation Xrotation
								End Site
								{
									OFFSET 0.000000 0.000000 0.000000
								}
							}
						}
					}
				}
			}
		}
	}
}
MOTION
Frames: 10
Frame Time: 0.033333
-7.708096 -4.028262 96.830322 139.893462 -0.069594 88.570944 -1.866825 -1.247887 5.969241 4.092286 -9.814691 -6.170640 1.769843 7.133543 -2.630834 nan nan nan -0.531449 -1.751164 4.673853 -0.082940 0.065242 -4.076491 6.607973 -5.130385 0.216790 nan nan nan -0.250574 2.566530 3.185070 1.614521 -3.737845 3.921940 1.409322 -0.945231 -2.926740 -4.174853 1.086170 1.757585 4.268644 0.469684 -4.723106 -22.020257 -3.887100 2.851294 -60.520861 -5.641786 13.157783 4.638282 -18.979772 -5.530571 -6.909406 -12.620551 -8.089426 22.071783 8.015945 2.797540 57.799165 5.808704 12.271806 -13.171360 19.363678 -12.192296 7.822905 11.248647 -9.637974 
-7.704433 -4.037449 96.824310 139.866356 0.149632 88.587504 -1.716813 -1.148229 5.598875 4.174082 -9.493660 -5.481862 1.703393 7.211606 -2.615930 nan nan nan -0.215425 -1.711860 4.637226 -0.145409 0.061543 -4.075021 6.408095 -5.262963 0.208891 nan nan nan 0.025414 2.536794 3.099616 1.658140 -3.784200 4.001487 1.341320 -0.879205 -2.934202 -4.186741 1.151439 1.787326 4.211505 0.445038 -4.780140 -22.163996 -3.861517 2.758713 -60.404823 -5.627190 13.145372 4.561614 -18.934650 -5.661875 -6.888656 -12.504313 -7.987783 22.137323 8.074661 2.761115 57.584467 5.764076 12.230007 -12.976809 19.334974 -12.255396 7.771957 11.257932 -9.499748 
-7.730789 -4.009575 96.807106 140.123100 0.182428 88.715580 -1.986208 -1.927966 5.751811 4.490625 -11.919628 -5.918401 0.841853 5.571220 -2.042531 nan nan nan -0.197262 -1.568091 4.713081 -0.132660 0.042031 -4.437598 6.630518 -5.523666 0.237958 nan nan nan 0.192986 2.605195 3.385697 1.612409 -3.776267 3.853324 1.267954 -0.621564 -3.050732 -4.598556 0.606020 1.529869 4.686653 0.268441 -5.381873 -21.806556 -4.136291 2.738012 -60.647752 -5.734871 13.148394 4.026677 -18.965542 -5.639318 -6.379197 -12.909647 -9.016192 21.490320 6.443673 1.234724 58.202071 5.397768 11.396493 -12.843172 20.191397 -12.060557 7.881511 11.539426 -9.358670 
-7.757957 -3.993441 96.797913 140.285249 0.179189 88.684347 -2.085064 -2.270704 6.037759 4.691220 -12.761198 -6.348182 0.367953 5.295852 -1.837995 nan nan nan -0.286853 -1.456554 4.925133 -0.031448 0.186623 -4.711772 6.994859 -5.863960 0.181922 nan nan nan 0.228920 2.543298 3.378601 1.641195 -3.629765 3.828631 1.396132 -0.724822 -2.841745 -4.909698 0.526325 1.439450 4.714374 -0.060614 -5.555657 -21.845961 -4.451850 2.845374 -60.808725 -5.758867 12.191919 4.050347 -19.020006 -5.162875 -8.170775 -13.477657 -8.427203 21.686371 6.345158 1.206303 57.679862 4.682920 13.847565 -7.565308 21.269399 0.724423 11.883128 8.735230 0.146025 
-7.752063 -3.992192 96.793999 140.243505 0.165783 88.646221 -2.079633 -2.314487 6.134687 4.574963 -12.668665 -6.429330 0.259652 5.202112 -1.796707 nan nan nan -0.322393 -1.452252 4.992520 -0.047088 0.127988 -4.777129 6.984031 -5.843892 0.171286 nan nan nan 0.194049 2.634870 3.297398 1.622411 -3.495111 3.872778 1.471200 -0.805463 -2.660969 -4.873198 0.503542 1.436188 4.681503 -0.205813 -5.714677 -21.774917 -4.573338 3.027834 -61.071124 -5.891840 12.088753 4.426041 -19.106123 -5.037104 -8.257644 -13.645249 -8.450284 21.454661 6.337009 1.253579 57.972547 4.698942 13.738911 -7.871989 21.485057 0.787241 11.639698 8.691407 -0.058693 
-7.736745 -3.969651 96.793701 140.253265 0.073116 88.556911 -2.269404 -2.550269 6.360191 4.681071 -12.220442 -6.610107 0.127569 5.419437 -1.605381 nan nan nan -0.459864 -1.189229 5.270640 0.003348 -0.041359 -5.080015 7.176625 -6.022580 0.103144 nan nan nan 0.058862 2.773393 3.245685 1.568112 -3.383397 3.936551 1.596838 -0.884809 -2.539590 -5.029060 0.619642 1.560448 5.028177 -0.483271 -5.993766 -21.587727 -4.911682 3.378308 -61.091697 -6.432376 11.523902 3.695909 -18.677129 -4.990177 -10.689277 -15.554812 -8.876767 21.046767 6.035058 0.930071 58.498443 4.660714 13.395528 -8.021261 21.518158 1.474300 12.104695 8.887871 0.250286 
-7.727262 -3.960608 96.794441 140.212549 0.046621 88.515625 -2.260919 -2.576543 6.500668 4.597934 -12.011152 -6.772533 0.100576 5.502240 -1.525710 nan nan nan -0.502146 -1.202857 5.346372 -0.006159 -0.008274 -5.119653 7.262738 -5.997845 0.012820 nan nan nan 0.015441 2.800670 3.287661 1.556063 -3.370308 3.809433 1.631436 -0.892454 -2.437938 -4.997569 0.656725 1.726490 5.035951 -0.546277 -6.165775 -21.293515 -4.887870 3.391553 -61.317785 -6.384735 11.595840 3.546426 -18.810228 -4.703486 -10.646858 -15.673300 -9.079357 20.799406 5.943815 0.879884 58.796768 4.689019 13.422761 -8.052696 21.557498 1.665472 11.691571 8.848061 0.186437 
-7.728888 -3.969918 96.794617 140.187404 0.085653 88.541858 -2.204334 -2.424921 6.343264 4.616780 -11.290306 -6.586549 0.248459 6.214200 -1.411761 nan nan nan -0.432886 -1.158954 5.291922 -0.046891 0.031767 -5.081057 7.259011 -6.071507 0.058148 nan nan nan 0.068885 2.807787 3.320070 1.521831 -3.373142 3.641069 1.634259 -0.872084 -2.345670 -4.977416 0.633741 1.769326 5.049628 -0.483598 -6.191795 -21.042445 -4.777714 3.356720 -61.695513 -6.407557 11.705612 3.785045 -18.742020 -4.586631 -10.926062 -15.780924 -9.136726 20.603840 5.898812 0.871510 59.076235 4.652545 13.527322 -8.049781 21.623707 1.848471 11.771953 8.882342 -0.012968 
-7.733718 -3.974992 96.796432 140.188236 0.104737 88.564728 -2.168805 -2.339422 6.266723 4.579421 -10.998388 -6.529462 0.303029 6.467698 -1.450763 nan nan nan -0.408345 -1.159321 5.244134 -0.054136 0.000904 -5.051240 7.292677 -6.116246 -0.001167 nan nan nan 0.103843 2.782914 3.314686 1.501107 -3.377981 3.547559 1.632985 -0.858320 -2.296628 -4.973007 0.654862 1.842625 5.060146 -0.443133 -6.240845 -20.889418 -4.729194 3.336414 -61.893892 -6.359795 11.799468 3.886330 -18.784899 -4.484684 -11.130877 -15.831447 -9.219808 20.452033 5.908531 0.906177 59.282404 4.593953 13.630578 -7.978948 21.751179 2.000749 12.131296 8.910931 -0.310449 
-7.740535 -3.976215 96.797165 140.166301 0.073736 88.592445 -2.197458 -2.440949 6.305803 4.587463 -11.281886 -6.614626 0.220683 6.198330 -1.543594 nan nan nan -0.441850 -1.160445 5.182815 -0.080526 -0.004040 -5.019873 7.306008 -6.080330 -0.013318 nan nan nan 0.091947 2.777592 3.274615 1.483388 -3.365882 3.525264 1.621629 -0.867621 -2.254371 -4.974723 0.720172 1.831915 5.079679 -0.430478 -6.314701 -20.804803 -4.688814 3.305829 -61.972872 -6.292363 11.840467 3.897494 -18.897047 -4.464921 -11.200089 -15.918798 -9.345076 20.384533 5.874971 0.890082 59.398890 4.578200 13.691533 -7.940663 21.833793 2.152777 12.440182 8.965347 -0.421177 
